# xmcd
#
# Track frame offsets: 
#        150
#        23737
#        47474
#        69036
#        93298
#        116335
#        149484
#        164858
#        188807
#        209606
#        250275
#        295730
#
# Disc length: 4249 seconds
#
# Revision: 0
# Processed by: cddbd v1.5.1PL0 Copyright (c) Steve Scherf et al.
# Submitted via: ExactAudioCopy v0.95a4
#
DISCID=aa10970c
DTITLE=J. Cool and the Mississippi Delta Blues Band - Plantation Blues
DTITLE=("Live On Beale Street")
DYEAR=1900
DGENRE=Blues
TTITLE0=Funky Woman
TTITLE1=Plantation Blues
TTITLE2=Why Did It Have To Happen This Way
TTITLE3=I'm Yo Mr. Everything
TTITLE4=It Was Your Last Lie Darling
TTITLE5=Rosie Lee
TTITLE6=My Funky Woman (Vocal)
TTITLE7=Born In The Delta, Raised Up In The County Jail
TTITLE8=I Am A Turn-Row Lover
TTITLE9=Oh Baby What's Wrong With You?
TTITLE10=I Got To Find My Baby
TTITLE11=Mule Boy
EXTD=
EXTT0=
EXTT1=
EXTT2=
EXTT3=
EXTT4=
EXTT5=
EXTT6=
EXTT7=
EXTT8=
EXTT9=
EXTT10=
EXTT11=
PLAYORDER=
